<svg id="Capa_1" enable-background="new 0 0 512 512" height="100" viewBox="0 0 512 512" width="100" xmlns="http://www.w3.org/2000/svg"><g><g><path d="m504.5 295.955h-497v124.218c0 10.715 8.686 19.401 19.401 19.401h458.198c10.715 0 19.401-8.686 19.401-19.401z" fill="#35C0ED"/><path d="m477.107 295.956v124.218c0 10.715-8.686 19.401-19.401 19.401h27.393c10.715 0 19.401-8.686 19.401-19.401v-124.218z" fill="#35C0ED"/><path d="m485.099 326.142h-458.198c-10.715 0-19.401-8.686-19.401-19.401v-214.918c0-10.715 8.686-19.401 19.401-19.401h458.198c10.715 0 19.401 8.686 19.401 19.401v214.918c0 10.715-8.686 19.401-19.401 19.401z" fill="#eaf6ff"/><path d="m485.099 72.423h-27.393c10.715 0 19.401 8.686 19.401 19.401v214.918c0 10.715-8.686 19.401-19.401 19.401h27.393c10.715 0 19.401-8.686 19.401-19.401v-214.919c0-10.714-8.686-19.4-19.401-19.4z" fill="#d8ecfe"/><g><g><circle cx="130.683" cy="383.863" fill="#fbc56d" r="27.856"/></g><g><circle cx="381.185" cy="383.863" fill="#fbc56d" r="27.856"/></g></g><circle cx="130.683" cy="196.962" fill="#35C0ED" r="36.313"/><path d="m130.683 160.649c-4.847 0-9.469.957-13.696 2.681 13.264 5.408 22.617 18.424 22.617 33.632s-9.353 28.225-22.617 33.632c4.228 1.724 8.849 2.681 13.696 2.681 20.055 0 36.313-16.258 36.313-36.313s-16.257-36.313-36.313-36.313z" fill="#35C0ED"/><circle cx="381.054" cy="196.962" fill="#35C0ED" r="36.313"/><path d="m381.054 160.649c-4.847 0-9.469.957-13.696 2.681 13.264 5.408 22.617 18.424 22.617 33.632s-9.353 28.225-22.617 33.632c4.228 1.724 8.849 2.681 13.696 2.681 20.055 0 36.313-16.258 36.313-36.313s-16.258-36.313-36.313-36.313z" fill="#35C0ED"/><path d="m283.443 397.792h-54.887c-8.323 0-15.07-6.747-15.07-15.07 0-8.323 6.747-15.07 15.07-15.07h54.887c8.323 0 15.07 6.747 15.07 15.07 0 8.323-6.747 15.07-15.07 15.07z" fill="#fef1da"/><path d="m283.443 367.652h-27.393c8.323 0 15.07 6.747 15.07 15.07s-6.747 15.07-15.07 15.07h27.393c8.323 0 15.07-6.747 15.07-15.07s-6.747-15.07-15.07-15.07z" fill="#f4ddb2"/></g><g><path d="m485.099 64.923h-458.198c-14.833 0-26.901 12.067-26.901 26.9v328.354c0 14.832 12.067 26.899 26.9 26.899h399.141c4.142 0 7.5-3.357 7.5-7.5s-3.358-7.5-7.5-7.5h-399.141c-6.562 0-11.9-5.338-11.9-11.899v-89.32c3.591 1.779 7.63 2.784 11.901 2.784h458.198c4.271 0 8.31-1.005 11.901-2.784v89.32c0 6.562-5.338 11.899-11.9 11.899h-23.866c-4.142 0-7.5 3.357-7.5 7.5s3.358 7.5 7.5 7.5h23.866c14.833 0 26.9-12.067 26.9-26.899v-113.436-214.918c0-14.833-12.068-26.9-26.901-26.9zm0 253.72h-458.198c-6.562 0-11.901-5.339-11.901-11.901v-214.919c0-6.562 5.339-11.9 11.901-11.9h458.198c6.562 0 11.901 5.339 11.901 11.9v214.918c0 6.563-5.339 11.902-11.901 11.902z"/><path d="m95.327 383.863c0 19.495 15.861 35.356 35.356 35.356 19.496 0 35.356-15.861 35.356-35.356s-15.861-35.355-35.356-35.355-35.356 15.86-35.356 35.355zm55.713 0c0 8.575-5.336 15.913-12.856 18.907v-18.907c0-4.143-3.358-7.5-7.5-7.5s-7.5 3.357-7.5 7.5v18.907c-7.52-2.994-12.856-10.332-12.856-18.907 0-11.224 9.132-20.355 20.356-20.355s20.356 9.132 20.356 20.355z"/><path d="m345.829 383.863c0 19.495 15.861 35.356 35.356 35.356s35.356-15.861 35.356-35.356-15.861-35.355-35.356-35.355-35.356 15.86-35.356 35.355zm55.712 0c0 8.574-5.336 15.913-12.856 18.907v-18.907c0-4.143-3.358-7.5-7.5-7.5s-7.5 3.357-7.5 7.5v18.907c-7.52-2.994-12.856-10.332-12.856-18.907 0-11.224 9.132-20.355 20.356-20.355s20.356 9.132 20.356 20.355z"/><path d="m130.683 240.775c24.159 0 43.813-19.654 43.813-43.813s-19.655-43.813-43.813-43.813-43.813 19.654-43.813 43.813 19.654 43.813 43.813 43.813zm0-72.627c15.888 0 28.813 12.926 28.813 28.813s-12.926 28.813-28.813 28.813-28.813-12.926-28.813-28.813 12.925-28.813 28.813-28.813z"/><path d="m222.256 189.677h-9.21c-3.482-39.683-35.095-71.406-74.731-75.051v-8.889c0-4.143-3.358-7.5-7.5-7.5s-7.5 3.357-7.5 7.5v14.646c-.083.447-.132.906-.132 1.377s.049.93.132 1.377v9.507c0 4.143 3.358 7.5 7.5 7.5s7.5-3.357 7.5-7.5v-2.942c31.359 3.536 56.297 28.569 59.673 59.975h-2.639c-4.142 0-7.5 3.357-7.5 7.5s3.358 7.5 7.5 7.5h2.585c-3.558 31.204-28.403 56.026-59.618 59.545v-2.511c0-4.143-3.358-7.5-7.5-7.5s-7.5 3.357-7.5 7.5v2.545c-31.339-3.409-56.314-28.287-59.881-59.579h2.848c4.142 0 7.5-3.357 7.5-7.5s-3.358-7.5-7.5-7.5h-2.901c2.349-21.662 15.062-41.106 34.361-51.878 3.617-2.019 4.913-6.587 2.894-10.204s-6.587-4.912-10.204-2.894c-24.046 13.421-39.716 37.871-42.117 64.976h-8.94c-4.142 0-7.5 3.357-7.5 7.5s3.358 7.5 7.5 7.5h8.979c3.679 39.57 35.345 71.125 74.962 74.642v9.3c0 4.143 3.358 7.5 7.5 7.5s7.5-3.357 7.5-7.5v-9.32c39.494-3.632 71.027-35.139 74.699-74.622h9.242c4.142 0 7.5-3.357 7.5-7.5s-3.36-7.5-7.502-7.5z"/><path d="m381.054 153.148c-16.01 0-30.74 8.729-38.441 22.779-1.991 3.632-.661 8.19 2.972 10.182 3.634 1.991 8.191.659 10.182-2.973 5.068-9.245 14.757-14.988 25.288-14.988 15.888 0 28.813 12.926 28.813 28.813s-12.925 28.813-28.813 28.813c-10.14 0-19.347-5.179-24.63-13.852-2.155-3.537-6.77-4.661-10.307-2.504-3.538 2.154-4.659 6.77-2.504 10.307 8.028 13.18 22.024 21.049 37.441 21.049 24.159 0 43.813-19.654 43.813-43.813s-19.656-43.813-43.814-43.813z"/><path d="m472.626 189.677h-9.21c-3.482-39.683-35.095-71.406-74.731-75.051v-8.889c0-4.143-3.358-7.5-7.5-7.5s-7.5 3.357-7.5 7.5v8.869c-39.759 3.529-71.505 35.301-74.995 75.071h-8.946c-4.142 0-7.5 3.357-7.5 7.5s3.358 7.5 7.5 7.5h8.979c3.679 39.57 35.345 71.125 74.962 74.642v9.3c0 4.143 3.358 7.5 7.5 7.5s7.5-3.357 7.5-7.5v-9.32c39.494-3.632 71.027-35.138 74.699-74.622h9.242c4.142 0 7.5-3.357 7.5-7.5s-3.358-7.5-7.5-7.5zm-83.941 74.545v-2.511c0-4.143-3.358-7.5-7.5-7.5s-7.5 3.357-7.5 7.5v2.545c-31.339-3.409-56.314-28.287-59.881-59.579h2.848c4.142 0 7.5-3.357 7.5-7.5s-3.358-7.5-7.5-7.5h-2.903c3.386-31.494 28.453-56.584 59.936-60.009v2.975c0 4.143 3.358 7.5 7.5 7.5s7.5-3.357 7.5-7.5v-2.942c31.359 3.536 56.297 28.569 59.673 59.975h-2.639c-4.142 0-7.5 3.357-7.5 7.5s3.358 7.5 7.5 7.5h2.585c-3.558 31.205-28.404 56.027-59.619 59.546z"/><path d="m228.557 360.152c-12.445 0-22.569 10.125-22.569 22.569s10.125 22.569 22.569 22.569h54.887c12.445 0 22.569-10.125 22.569-22.569s-10.125-22.569-22.569-22.569zm62.456 22.57c0 4.174-3.396 7.569-7.569 7.569h-54.887c-4.174 0-7.569-3.396-7.569-7.569s3.396-7.569 7.569-7.569h54.887c4.173-.001 7.569 3.395 7.569 7.569z"/><path d="m235.945 281.28c-4.052 0-7.338 3.285-7.338 7.338s3.285 7.338 7.338 7.338 7.338-3.285 7.338-7.338-3.286-7.338-7.338-7.338z"/><path d="m276.055 281.28c-4.052 0-7.338 3.285-7.338 7.338s3.285 7.338 7.338 7.338 7.338-3.285 7.338-7.338-3.285-7.338-7.338-7.338z"/></g></g></svg>