<svg height="100" viewBox="0 0 64 64" width="100" xmlns="http://www.w3.org/2000/svg"><g id="Gas_mask" data-name="Gas mask"><path d="m55 45v12l-23 4-23-4v-12l14-3h18z" fill="#35C0ED"/><path d="m52 58v-13.64l3 .64v12" fill="#35C0ED"/><path d="m51 51v6.7l-8 1.39v-8.09z" fill="#35C0ED"/><path d="m46 15v7a2.006 2.006 0 0 1 -2 2h-24a2.006 2.006 0 0 1 -2-2v-7a8 8 0 0 1 8-8h12a8 8 0 0 1 8 8z" fill="#35C0ED"/><path d="m46 15v7a2.006 2.006 0 0 1 -2 2h-4a2.006 2.006 0 0 0 2-2v-7a8 8 0 0 0 -8-8h4a8 8 0 0 1 8 8z" fill="#35C0ED"/><path d="m43 24v4l-4 5h-14l-4-5v-4z" fill="#ffdaaa"/><path d="m43 24v4l-4 5h-3l4-5v-4z" fill="#ffc477"/><path d="m41 42-9 3-9-3 2.37-3.95.63-1.05s10.94.07 11 0l1.36 1.7v.01z" fill="#ffdaaa"/><path d="m26.57 37.04s1.34.01 3.05.01h-3.05z" fill="#ffb655"/><path d="m34.03 37.04c-1.38.01-3.02.01-4.41.01 2.29 0 4.36-.02 4.38-.05z" fill="#ffb655"/><path d="m41 42-9 10-9-10 9 3z" fill="#c6c5ca"/><path d="m39 33a5.924 5.924 0 0 1 -1.57 4.04c-.06.07-.13.14-.19.2a5.944 5.944 0 0 1 -4.24 1.76h-2a6 6 0 0 1 0-12h2a6 6 0 0 1 6 6z" fill="#c6c5ca"/><path d="m38.36 38.7v.01a6.116 6.116 0 0 1 -.93 1.33c-.06.07-.13.14-.19.2a5.944 5.944 0 0 1 -4.24 1.76h-2a5.967 5.967 0 0 1 -4.43-1.96 5.613 5.613 0 0 1 -1.2-1.99l.63-1.05s10.94.07 11 0z" fill="#ffc477"/><path d="m39 33a5.924 5.924 0 0 1 -1.57 4.04c-.06.07-.13.14-.19.2a5.944 5.944 0 0 1 -4.24 1.76h-2a5.967 5.967 0 0 1 -4.43-1.96c-.08-.09-.16-.18-.24-.28a5.764 5.764 0 0 0 1.67.24h2a5.944 5.944 0 0 0 4.24-1.76c.06-.06.13-.13.19-.2a5.981 5.981 0 0 0 .24-7.8 6 6 0 0 1 4.33 5.76z" fill="#898890"/><path d="m36 5v2h-8v-2a2.006 2.006 0 0 1 2-2h4a2.006 2.006 0 0 1 2 2z" fill="#35C0ED"/><path d="m36 5v2h-3v-2a2.006 2.006 0 0 0 -2-2h3a2.006 2.006 0 0 1 2 2z" fill="#006df0"/><path d="m33 31a2 2 0 0 1 0 4h-2a2 2 0 0 1 0-4z" fill="#57a4ff"/><path d="m35 33a2.006 2.006 0 0 1 -2 2h-2a2 2 0 0 0 0-4h2a2.006 2.006 0 0 1 2 2z" fill="#2488ff"/><path d="m21 51v8.09l-8-1.39v-6.7z" fill="#35C0ED"/><path d="m43 51h8v2h-8z" fill="#006df0"/><path d="m13 51h8v2h-8z" fill="#006df0"/><path d="m55.21 44.02-13.62-2.92-2.91-4.03a6.931 6.931 0 0 0 1.24-3.07h4.08v2h2v-6h-2v2h-2.92l2.7-3.38a.977.977 0 0 0 .22-.62v-3a3.009 3.009 0 0 0 3-3v-7a9.014 9.014 0 0 0 -9-9h-1v-1a3.009 3.009 0 0 0 -3-3h-4a3.009 3.009 0 0 0 -3 3v1h-1a9.014 9.014 0 0 0 -9 9v7a3.009 3.009 0 0 0 3 3v3a.977.977 0 0 0 .22.62l2.7 3.38h-2.92v-2h-2v6h2v-2h4.08a6.931 6.931 0 0 0 1.24 3.07l-2.91 4.03-13.62 2.92a1 1 0 0 0 -.79.98v12a1.008 1.008 0 0 0 .83.99l23 4a1.45 1.45 0 0 0 .34 0l23-4a1.008 1.008 0 0 0 .83-.99v-12a1 1 0 0 0 -.79-.98zm-26.21-39.02a1 1 0 0 1 1-1h4a1 1 0 0 1 1 1v1h-6zm-9 18a1 1 0 0 1 -1-1v-7a7.008 7.008 0 0 1 7-7h12a7.008 7.008 0 0 1 7 7v7a1 1 0 0 1 -1 1zm4.41 7.66-2.41-3.01v-2.65h20v2.65l-2.41 3.01a7.01 7.01 0 0 0 -6.59-4.66h-2a7.01 7.01 0 0 0 -6.59 4.66zm13.59 2.34a5 5 0 0 1 -5 5h-2a5 5 0 0 1 0-10h2a5 5 0 0 1 5 5zm-11.27 5.53a6.919 6.919 0 0 0 4.27 1.47h2a6.919 6.919 0 0 0 4.27-1.47l2.12 2.95-7.39 2.47-7.39-2.47zm10.99 5.62-5.72 6.36-5.72-6.36 5.4 1.8a1 1 0 0 0 .64 0zm-17.72 13.75-6-1.05v-4.85h6zm30-1.05-6 1.05v-5.9h6zm4-.69-2 .35v-5.51a1 1 0 0 0 -1-1h-8a1 1 0 0 0 -1 1v7.25l-10 1.73-10-1.73v-7.25a1 1 0 0 0 -1-1h-8a1 1 0 0 0 -1 1v5.51l-2-.35v-10.35l12.64-2.71 8.62 9.57a.995.995 0 0 0 1.48 0l8.62-9.57 12.64 2.71z"/><path d="m33 30h-2a3 3 0 0 0 0 6h2a3 3 0 0 0 0-6zm0 4h-2a1 1 0 0 1 0-2h2a1 1 0 0 1 0 2z"/><path d="m26 11h2v2h-2z"/><path d="m22 11h2v2h-2z"/></g></svg>